<svg width="171" height="60" viewBox="0 0 171 60" fill="none" xmlns="http://www.w3.org/2000/svg">
<g clip-path="url(#clip0_98_4867)">
<path d="M71.171 29.17C70.151 29.17 69.2557 29.0057 68.485 28.677C67.7257 28.337 67.1363 27.8213 66.717 27.13C66.2977 26.4273 66.088 25.5377 66.088 24.461V17.525C66.088 17.4003 66.1277 17.2983 66.207 17.219C66.2863 17.1397 66.3883 17.1 66.513 17.1H68.706C68.8307 17.1 68.9327 17.1397 69.012 17.219C69.0913 17.2983 69.131 17.4003 69.131 17.525V24.444C69.131 25.1807 69.3067 25.736 69.658 26.11C70.0207 26.4727 70.525 26.654 71.171 26.654C71.8057 26.654 72.2987 26.4727 72.65 26.11C73.0127 25.736 73.194 25.1807 73.194 24.444V17.525C73.194 17.4003 73.2337 17.2983 73.313 17.219C73.4037 17.1397 73.5057 17.1 73.619 17.1H75.829C75.9423 17.1 76.0387 17.1397 76.118 17.219C76.2087 17.2983 76.254 17.4003 76.254 17.525V24.461C76.254 25.5377 76.0443 26.4273 75.625 27.13C75.2057 27.8213 74.6163 28.337 73.857 28.677C73.0977 29.0057 72.2023 29.17 71.171 29.17ZM79.4434 29C79.3187 29 79.2167 28.9603 79.1374 28.881C79.058 28.8017 79.0184 28.6997 79.0184 28.575V17.525C79.0184 17.4003 79.058 17.2983 79.1374 17.219C79.2167 17.1397 79.3187 17.1 79.4434 17.1H84.2034C85.144 17.1 85.96 17.2473 86.6514 17.542C87.354 17.8253 87.898 18.256 88.2834 18.834C88.68 19.412 88.8784 20.143 88.8784 21.027C88.8784 21.8997 88.68 22.6193 88.2834 23.186C87.898 23.7527 87.354 24.172 86.6514 24.444C85.96 24.716 85.144 24.852 84.2034 24.852H82.1804V28.575C82.1804 28.6997 82.135 28.8017 82.0444 28.881C81.965 28.9603 81.863 29 81.7384 29H79.4434ZM82.1294 22.506H84.1184C84.6057 22.506 84.991 22.3813 85.2744 22.132C85.569 21.8827 85.7164 21.503 85.7164 20.993C85.7164 20.5623 85.5917 20.1997 85.3424 19.905C85.093 19.6103 84.685 19.463 84.1184 19.463H82.1294V22.506ZM95.8956 29.17C94.819 29.17 93.8953 28.9943 93.1246 28.643C92.3653 28.2917 91.7703 27.776 91.3396 27.096C90.9203 26.416 90.688 25.5717 90.6426 24.563C90.6313 24.0983 90.6256 23.5997 90.6256 23.067C90.6256 22.5343 90.6313 22.0243 90.6426 21.537C90.688 20.551 90.926 19.718 91.3566 19.038C91.7873 18.3467 92.388 17.8253 93.1586 17.474C93.9293 17.1113 94.8416 16.93 95.8956 16.93C96.6436 16.93 97.335 17.0263 97.9696 17.219C98.6043 17.4003 99.1596 17.6723 99.6356 18.035C100.112 18.3863 100.48 18.817 100.741 19.327C101.013 19.8257 101.154 20.3923 101.166 21.027C101.177 21.129 101.143 21.214 101.064 21.282C100.996 21.35 100.911 21.384 100.809 21.384H98.5136C98.3663 21.384 98.253 21.3557 98.1736 21.299C98.0943 21.231 98.0263 21.112 97.9696 20.942C97.811 20.3413 97.5503 19.9333 97.1876 19.718C96.8363 19.4913 96.4 19.378 95.8786 19.378C95.2553 19.378 94.7623 19.5537 94.3996 19.905C94.037 20.245 93.8386 20.8173 93.8046 21.622C93.7706 22.5513 93.7706 23.5033 93.8046 24.478C93.8386 25.2827 94.037 25.8607 94.3996 26.212C94.7623 26.552 95.2553 26.722 95.8786 26.722C96.4 26.722 96.842 26.6087 97.2046 26.382C97.5673 26.1553 97.8223 25.7473 97.9696 25.158C98.015 24.988 98.0773 24.8747 98.1566 24.818C98.2473 24.75 98.3663 24.716 98.5136 24.716H100.809C100.911 24.716 100.996 24.75 101.064 24.818C101.143 24.886 101.177 24.971 101.166 25.073C101.154 25.7077 101.013 26.28 100.741 26.79C100.48 27.2887 100.112 27.7193 99.6356 28.082C99.1596 28.4333 98.6043 28.7053 97.9696 28.898C97.335 29.0793 96.6436 29.17 95.8956 29.17ZM108.325 29.17C107.282 29.17 106.376 29 105.605 28.66C104.834 28.32 104.234 27.81 103.803 27.13C103.372 26.4387 103.134 25.5773 103.089 24.546C103.078 24.0587 103.072 23.5713 103.072 23.084C103.072 22.5967 103.078 22.1037 103.089 21.605C103.134 20.585 103.372 19.7293 103.803 19.038C104.245 18.3353 104.851 17.8083 105.622 17.457C106.393 17.1057 107.294 16.93 108.325 16.93C109.345 16.93 110.24 17.1057 111.011 17.457C111.793 17.8083 112.405 18.3353 112.847 19.038C113.289 19.7293 113.527 20.585 113.561 21.605C113.584 22.1037 113.595 22.5967 113.595 23.084C113.595 23.5713 113.584 24.0587 113.561 24.546C113.516 25.5773 113.278 26.4387 112.847 27.13C112.416 27.81 111.816 28.32 111.045 28.66C110.274 29 109.368 29.17 108.325 29.17ZM108.325 26.722C108.926 26.722 109.413 26.5407 109.787 26.178C110.172 25.8153 110.376 25.2373 110.399 24.444C110.422 23.9453 110.433 23.475 110.433 23.033C110.433 22.591 110.422 22.132 110.399 21.656C110.376 21.1233 110.274 20.6927 110.093 20.364C109.923 20.024 109.685 19.7747 109.379 19.616C109.073 19.4573 108.722 19.378 108.325 19.378C107.94 19.378 107.594 19.4573 107.288 19.616C106.982 19.7747 106.738 20.024 106.557 20.364C106.376 20.6927 106.274 21.1233 106.251 21.656C106.24 22.132 106.234 22.591 106.234 23.033C106.234 23.475 106.24 23.9453 106.251 24.444C106.285 25.2373 106.489 25.8153 106.863 26.178C107.237 26.5407 107.724 26.722 108.325 26.722ZM116.501 29C116.387 29 116.285 28.9603 116.195 28.881C116.115 28.8017 116.076 28.6997 116.076 28.575V17.525C116.076 17.4003 116.115 17.2983 116.195 17.219C116.285 17.1397 116.387 17.1 116.501 17.1H118.337C118.518 17.1 118.654 17.151 118.745 17.253C118.847 17.3437 118.909 17.4173 118.932 17.474L121.924 22.846L124.916 17.474C124.95 17.4173 125.006 17.3437 125.086 17.253C125.176 17.151 125.318 17.1 125.511 17.1H127.33C127.454 17.1 127.556 17.1397 127.636 17.219C127.726 17.2983 127.772 17.4003 127.772 17.525V28.575C127.772 28.6997 127.726 28.8017 127.636 28.881C127.556 28.9603 127.454 29 127.33 29H125.307C125.182 29 125.074 28.9603 124.984 28.881C124.904 28.8017 124.865 28.6997 124.865 28.575V22.2L122.944 25.753C122.898 25.855 122.83 25.9457 122.74 26.025C122.649 26.1043 122.524 26.144 122.366 26.144H121.482C121.323 26.144 121.198 26.1043 121.108 26.025C121.017 25.9457 120.943 25.855 120.887 25.753L118.966 22.2V28.575C118.966 28.6997 118.926 28.8017 118.847 28.881C118.767 28.9603 118.665 29 118.541 29H116.501ZM131.072 29C130.948 29 130.846 28.9603 130.766 28.881C130.687 28.8017 130.647 28.6997 130.647 28.575V17.525C130.647 17.4003 130.687 17.2983 130.766 17.219C130.846 17.1397 130.948 17.1 131.072 17.1H133.35C133.475 17.1 133.577 17.1397 133.656 17.219C133.736 17.2983 133.775 17.4003 133.775 17.525V28.575C133.775 28.6997 133.736 28.8017 133.656 28.881C133.577 28.9603 133.475 29 133.35 29H131.072ZM137.094 29C136.969 29 136.867 28.9603 136.788 28.881C136.709 28.8017 136.669 28.6997 136.669 28.575V17.525C136.669 17.4003 136.709 17.2983 136.788 17.219C136.867 17.1397 136.969 17.1 137.094 17.1H138.896C139.089 17.1 139.225 17.1453 139.304 17.236C139.395 17.3153 139.451 17.3777 139.474 17.423L143.622 23.968V17.525C143.622 17.4003 143.662 17.2983 143.741 17.219C143.82 17.1397 143.922 17.1 144.047 17.1H146.087C146.212 17.1 146.314 17.1397 146.393 17.219C146.472 17.2983 146.512 17.4003 146.512 17.525V28.575C146.512 28.6883 146.472 28.7903 146.393 28.881C146.314 28.9603 146.212 29 146.087 29H144.268C144.087 29 143.951 28.9547 143.86 28.864C143.781 28.7733 143.73 28.711 143.707 28.677L139.559 22.387V28.575C139.559 28.6997 139.519 28.8017 139.44 28.881C139.361 28.9603 139.259 29 139.134 29H137.094ZM154.311 29.17C153.234 29.17 152.305 28.9943 151.523 28.643C150.752 28.2803 150.151 27.759 149.721 27.079C149.301 26.3877 149.069 25.549 149.024 24.563C149.012 24.0757 149.007 23.56 149.007 23.016C149.007 22.4607 149.012 21.9337 149.024 21.435C149.069 20.4717 149.307 19.6557 149.738 18.987C150.168 18.3183 150.775 17.8083 151.557 17.457C152.339 17.1057 153.257 16.93 154.311 16.93C155.161 16.93 155.914 17.0377 156.572 17.253C157.229 17.457 157.779 17.7347 158.221 18.086C158.674 18.4373 159.014 18.8227 159.241 19.242C159.479 19.6613 159.603 20.075 159.615 20.483C159.626 20.585 159.592 20.67 159.513 20.738C159.445 20.806 159.36 20.84 159.258 20.84H156.776C156.651 20.84 156.555 20.823 156.487 20.789C156.43 20.7437 156.379 20.6813 156.334 20.602C156.254 20.432 156.135 20.2563 155.977 20.075C155.829 19.8823 155.62 19.718 155.348 19.582C155.087 19.446 154.741 19.378 154.311 19.378C153.665 19.378 153.155 19.548 152.781 19.888C152.418 20.228 152.22 20.772 152.186 21.52C152.152 22.4947 152.152 23.4807 152.186 24.478C152.22 25.2713 152.429 25.8437 152.815 26.195C153.2 26.5463 153.71 26.722 154.345 26.722C154.775 26.722 155.155 26.6483 155.484 26.501C155.824 26.3537 156.09 26.127 156.283 25.821C156.475 25.5037 156.572 25.1013 156.572 24.614V24.291H154.974C154.849 24.291 154.741 24.2513 154.651 24.172C154.571 24.0813 154.532 23.9737 154.532 23.849V22.591C154.532 22.4663 154.571 22.3643 154.651 22.285C154.741 22.1943 154.849 22.149 154.974 22.149H159.258C159.382 22.149 159.484 22.1943 159.564 22.285C159.643 22.3643 159.683 22.4663 159.683 22.591V24.529C159.683 25.5037 159.462 26.3367 159.02 27.028C158.578 27.7193 157.949 28.252 157.133 28.626C156.328 28.9887 155.387 29.17 154.311 29.17ZM66.615 50C66.4903 50 66.3883 49.9603 66.309 49.881C66.2297 49.8017 66.19 49.6997 66.19 49.575V38.525C66.19 38.4003 66.2297 38.2983 66.309 38.219C66.3883 38.1397 66.4903 38.1 66.615 38.1H74.554C74.6787 38.1 74.7807 38.1397 74.86 38.219C74.9393 38.2983 74.979 38.4003 74.979 38.525V40.123C74.979 40.2477 74.9393 40.3497 74.86 40.429C74.7807 40.5083 74.6787 40.548 74.554 40.548H69.131V42.843H74.18C74.3047 42.843 74.4067 42.8883 74.486 42.979C74.5653 43.0583 74.605 43.1603 74.605 43.285V44.764C74.605 44.8773 74.5653 44.9793 74.486 45.07C74.4067 45.1493 74.3047 45.189 74.18 45.189H69.131V47.552H74.69C74.8147 47.552 74.9167 47.5917 74.996 47.671C75.0753 47.7503 75.115 47.8523 75.115 47.977V49.575C75.115 49.6997 75.0753 49.8017 74.996 49.881C74.9167 49.9603 74.8147 50 74.69 50H66.615ZM80.891 50C80.6983 50 80.5453 49.949 80.432 49.847C80.3187 49.745 80.2393 49.626 80.194 49.49L76.726 38.61C76.7033 38.5533 76.692 38.5023 76.692 38.457C76.692 38.3663 76.726 38.287 76.794 38.219C76.8733 38.1397 76.964 38.1 77.066 38.1H79.174C79.3553 38.1 79.497 38.151 79.599 38.253C79.701 38.355 79.7633 38.4513 79.786 38.542L82.183 46.396L84.597 38.542C84.631 38.4513 84.6933 38.355 84.784 38.253C84.886 38.151 85.0277 38.1 85.209 38.1H87.317C87.419 38.1 87.504 38.1397 87.572 38.219C87.6513 38.287 87.691 38.3663 87.691 38.457C87.691 38.5023 87.6797 38.5533 87.657 38.61L84.189 49.49C84.1437 49.626 84.0643 49.745 83.951 49.847C83.849 49.949 83.696 50 83.492 50H80.891ZM90.2131 50C90.0885 50 89.9865 49.9603 89.9071 49.881C89.8278 49.8017 89.7881 49.6997 89.7881 49.575V38.525C89.7881 38.4003 89.8278 38.2983 89.9071 38.219C89.9865 38.1397 90.0885 38.1 90.2131 38.1H98.1521C98.2768 38.1 98.3788 38.1397 98.4581 38.219C98.5375 38.2983 98.5771 38.4003 98.5771 38.525V40.123C98.5771 40.2477 98.5375 40.3497 98.4581 40.429C98.3788 40.5083 98.2768 40.548 98.1521 40.548H92.7291V42.843H97.7781C97.9028 42.843 98.0048 42.8883 98.0841 42.979C98.1635 43.0583 98.2031 43.1603 98.2031 43.285V44.764C98.2031 44.8773 98.1635 44.9793 98.0841 45.07C98.0048 45.1493 97.9028 45.189 97.7781 45.189H92.7291V47.552H98.2881C98.4128 47.552 98.5148 47.5917 98.5941 47.671C98.6735 47.7503 98.7131 47.8523 98.7131 47.977V49.575C98.7131 49.6997 98.6735 49.8017 98.5941 49.881C98.5148 49.9603 98.4128 50 98.2881 50H90.2131ZM101.581 50C101.456 50 101.354 49.9603 101.275 49.881C101.195 49.8017 101.156 49.6997 101.156 49.575V38.525C101.156 38.4003 101.195 38.2983 101.275 38.219C101.354 38.1397 101.456 38.1 101.581 38.1H103.383C103.575 38.1 103.711 38.1453 103.791 38.236C103.881 38.3153 103.938 38.3777 103.961 38.423L108.109 44.968V38.525C108.109 38.4003 108.148 38.2983 108.228 38.219C108.307 38.1397 108.409 38.1 108.534 38.1H110.574C110.698 38.1 110.8 38.1397 110.88 38.219C110.959 38.2983 110.999 38.4003 110.999 38.525V49.575C110.999 49.6883 110.959 49.7903 110.88 49.881C110.8 49.9603 110.698 50 110.574 50H108.755C108.573 50 108.437 49.9547 108.347 49.864C108.267 49.7733 108.216 49.711 108.194 49.677L104.046 43.387V49.575C104.046 49.6997 104.006 49.8017 103.927 49.881C103.847 49.9603 103.745 50 103.621 50H101.581ZM116.927 50C116.803 50 116.701 49.9603 116.621 49.881C116.542 49.8017 116.502 49.6997 116.502 49.575V40.769H113.476C113.352 40.769 113.25 40.7293 113.17 40.65C113.091 40.5593 113.051 40.4573 113.051 40.344V38.525C113.051 38.4003 113.091 38.2983 113.17 38.219C113.25 38.1397 113.352 38.1 113.476 38.1H122.622C122.747 38.1 122.849 38.1397 122.928 38.219C123.008 38.2983 123.047 38.4003 123.047 38.525V40.344C123.047 40.4573 123.008 40.5593 122.928 40.65C122.849 40.7293 122.747 40.769 122.622 40.769H119.596V49.575C119.596 49.6997 119.557 49.8017 119.477 49.881C119.398 49.9603 119.296 50 119.171 50H116.927ZM129.506 50.17C128.373 50.17 127.432 50.0113 126.684 49.694C125.936 49.3653 125.369 48.9403 124.984 48.419C124.599 47.8977 124.395 47.3423 124.372 46.753C124.372 46.6623 124.406 46.583 124.474 46.515C124.553 46.4357 124.644 46.396 124.746 46.396H126.888C127.047 46.396 127.166 46.4243 127.245 46.481C127.336 46.5377 127.415 46.6113 127.483 46.702C127.574 46.872 127.698 47.0363 127.857 47.195C128.027 47.3537 128.242 47.484 128.503 47.586C128.775 47.6767 129.109 47.722 129.506 47.722C130.163 47.722 130.656 47.62 130.985 47.416C131.325 47.212 131.495 46.9343 131.495 46.583C131.495 46.3337 131.404 46.1297 131.223 45.971C131.042 45.801 130.747 45.6537 130.339 45.529C129.942 45.393 129.41 45.257 128.741 45.121C127.88 44.9397 127.143 44.7073 126.531 44.424C125.93 44.1293 125.471 43.7497 125.154 43.285C124.837 42.809 124.678 42.2197 124.678 41.517C124.678 40.8257 124.871 40.208 125.256 39.664C125.653 39.12 126.202 38.695 126.905 38.389C127.608 38.083 128.441 37.93 129.404 37.93C130.186 37.93 130.872 38.032 131.461 38.236C132.062 38.44 132.566 38.712 132.974 39.052C133.382 39.392 133.688 39.7547 133.892 40.14C134.107 40.514 134.221 40.8823 134.232 41.245C134.232 41.3357 134.198 41.4207 134.13 41.5C134.062 41.568 133.977 41.602 133.875 41.602H131.631C131.506 41.602 131.399 41.5793 131.308 41.534C131.217 41.4887 131.138 41.415 131.07 41.313C131.002 41.0637 130.821 40.8483 130.526 40.667C130.243 40.4743 129.869 40.378 129.404 40.378C128.905 40.378 128.514 40.4687 128.231 40.65C127.959 40.82 127.823 41.0863 127.823 41.449C127.823 41.6757 127.897 41.874 128.044 42.044C128.203 42.214 128.458 42.3613 128.809 42.486C129.172 42.6107 129.665 42.741 130.288 42.877C131.319 43.0697 132.152 43.3133 132.787 43.608C133.422 43.8913 133.886 44.2653 134.181 44.73C134.476 45.1833 134.623 45.7557 134.623 46.447C134.623 47.2177 134.402 47.8863 133.96 48.453C133.529 49.0083 132.929 49.4333 132.158 49.728C131.387 50.0227 130.503 50.17 129.506 50.17Z" fill="#ECBDF2"/>
<path d="M30.8538 56.1951H28.8538V42H30.8538V56.1951Z" fill="#B16AAC"/>
<path d="M29.8537 1.56055C33.5366 1.56055 36.3659 14.7557 36.3659 14.7557C36.3659 14.7557 49.7805 13.3654 50.9269 16.8776C52.0488 20.3654 40.3903 27.1215 40.3903 27.1215C40.3903 27.1215 45.8537 39.463 42.8781 41.6337C39.9025 43.7801 29.8537 34.7801 29.8537 34.7801C29.8537 34.7801 19.8049 43.7801 16.8537 41.6337C13.8781 39.463 19.3171 27.1215 19.3171 27.1215C19.3171 27.1215 7.65856 20.3654 8.8049 16.8776C9.92685 13.3654 23.3415 14.7557 23.3415 14.7557C23.3415 14.7557 26.1708 1.56055 29.8537 1.56055Z" fill="#F2762E"/>
<path d="M36.3902 26.6339V39.2193C36.3902 39.7071 36.2927 40.2193 36.1463 40.6827C35.5366 42.6583 33.6829 44.0729 31.5122 44.0729H28.1951C26.0244 44.0729 24.1707 42.6583 23.5609 40.6827C23.4146 40.2193 23.3414 39.7071 23.3414 39.2193V26.6339C23.3414 26.1217 23.4146 25.6339 23.5609 25.1705C24.1707 23.1949 26.0244 21.7559 28.1951 21.7559H31.5122C33.6829 21.7559 35.5366 23.1949 36.1463 25.1705C36.2927 25.6339 36.3902 26.1217 36.3902 26.6339Z" fill="#ECBDF2"/>
<path d="M27.6829 26.4138C27.6829 27.1211 27.0975 27.7065 26.4146 27.7065H23.3414V26.6333C23.3414 26.1211 23.4146 25.6333 23.5609 25.1699H26.4146C27.0975 25.1699 27.6829 25.7309 27.6829 26.4138Z" fill="white"/>
<path d="M27.6829 32.9265C27.6829 33.6094 27.0975 34.1948 26.4146 34.1948H23.3414V31.6582H26.4146C27.0975 31.6582 27.6829 32.2192 27.6829 32.9265Z" fill="white"/>
<path d="M27.6829 39.4138C27.6829 40.1211 27.0975 40.6821 26.4146 40.6821H23.5609C23.4146 40.2187 23.3414 39.7065 23.3414 39.2187V38.1455H26.4146C27.0975 38.1455 27.6829 38.7065 27.6829 39.4138Z" fill="white"/>
<path d="M36.3902 26.6333V27.7065H33.1951C32.5121 27.7065 31.9268 27.1211 31.9268 26.4138C31.9268 26.0724 32.0731 25.7553 32.317 25.5358C32.5365 25.2919 32.8536 25.1699 33.1951 25.1699H36.1463C36.2926 25.6333 36.3902 26.1211 36.3902 26.6333Z" fill="white"/>
<path d="M36.3902 31.6582V34.1948H33.1951C32.5121 34.1948 31.9268 33.6094 31.9268 32.9265C31.9268 32.5606 32.0731 32.2436 32.317 32.0241C32.5365 31.8045 32.8536 31.6582 33.1951 31.6582H36.3902Z" fill="white"/>
<path d="M36.3902 38.1455V39.1943C36.3902 39.7065 36.2926 40.2187 36.1463 40.6821H33.1951C32.5121 40.6821 31.9268 40.1211 31.9268 39.4138C31.9268 39.0479 32.0731 38.7553 32.317 38.5114C32.5365 38.2918 32.8536 38.1455 33.1951 38.1455H36.3902Z" fill="white"/>
<path d="M20.1219 58.1456C20.1219 57.2919 20.1219 56.1943 21.6585 56.1943H38.0732C39.5854 56.1943 39.5854 57.2919 39.5854 58.1456H20.1219Z" fill="#F2762E"/>
<path d="M32.2684 44.3654C32.2684 44.8045 31.9269 45.1703 31.4879 45.1703H28.244C27.8049 45.1703 27.4391 44.8045 27.4391 44.3654C27.4391 43.9264 27.8049 43.585 28.244 43.585H31.4879C31.9269 43.585 32.2684 43.9264 32.2684 44.3654Z" fill="#F2762E"/>
</g>
<defs>
<clipPath id="clip0_98_4867">
<rect width="171" height="60" fill="white"/>
</clipPath>
</defs>
</svg>
